<svg xmlns="http://www.w3.org/2000/svg" xmlns:xlink="http://www.w3.org/1999/xlink" width="64" height="64" viewBox="0 0 64 64">
  <defs>
    <clipPath id="clip-checkmark-a">
      <rect width="64" height="64"/>
    </clipPath>
  </defs>
  <g id="checkmark-a" clip-path="url(#clip-checkmark-a)">
    <path id="checkmark-a-2" data-name="checkmark-a" d="M22.752,49.006a6.351,6.351,0,0,1-2.876-.688,6.46,6.46,0,0,1-2.251-1.813L1.244,24.872A6.506,6.506,0,0,1,.056,20.183a6.016,6.016,0,0,1,2.438-4.189,6.112,6.112,0,0,1,4.752-1.25,6.286,6.286,0,0,1,4.252,2.5l10.754,14.13,27.01-43.391A5.934,5.934,0,0,1,53.2-14.831a6.317,6.317,0,0,1,4.814.813,6.159,6.159,0,0,1,2.876,3.939,5.843,5.843,0,0,1-.875,4.814L28.129,46a6.269,6.269,0,0,1-2.188,2.126A6.911,6.911,0,0,1,23,49.006h-.25Z" transform="translate(0.998 14.994)"/>
  </g>
</svg>
