<svg xmlns="http://www.w3.org/2000/svg" xmlns:xlink="http://www.w3.org/1999/xlink" width="64" height="64" viewBox="0 0 64 64">
  <defs>
    <clipPath id="clip-delivery-a">
      <rect width="64" height="64"/>
    </clipPath>
  </defs>
  <g id="delivery-a" clip-path="url(#clip-delivery-a)">
    <path id="delivery-a-2" data-name="delivery-a" d="M-268.457-350.612h-11.976a8.082,8.082,0,0,1-7.793,5.982,8.083,8.083,0,0,1-7.8-5.983h-5.248a2.016,2.016,0,0,1-2.017-2.017,2.017,2.017,0,0,1,2.017-2.017h5.213a8.082,8.082,0,0,1,7.83-6.118,8.081,8.081,0,0,1,7.828,6.118h11.906a8.081,8.081,0,0,1,7.828-6.118,8.082,8.082,0,0,1,7.83,6.118h3.8v-10.4l-2.937-3.784h-15.686a2.017,2.017,0,0,1-2.017-2.017v-14.118h-31.6a2.017,2.017,0,0,1-2.017-2.017A2.016,2.016,0,0,1-301.269-389h33.614a2.015,2.015,0,0,1,2.017,2.017v2.017h8.606a2.016,2.016,0,0,1,1.8,1.112l6.052,12.033,0,0,3.76,4.844a2.018,2.018,0,0,1,.423,1.238v13.108a2.015,2.015,0,0,1-2.017,2.017h-5.852a8.083,8.083,0,0,1-7.8,5.983A8.082,8.082,0,0,1-268.457-350.612Zm3.76-2.085a4.037,4.037,0,0,0,4.033,4.033,4.037,4.037,0,0,0,4.033-4.033,4.037,4.037,0,0,0-4.033-4.033A4.037,4.037,0,0,0-264.7-352.7Zm-27.564,0a4.038,4.038,0,0,0,4.035,4.033,4.038,4.038,0,0,0,4.033-4.033,4.038,4.038,0,0,0-4.033-4.033A4.038,4.038,0,0,0-292.261-352.7Zm26.622-20.168h11.418l-4.057-8.068h-7.361Zm-38.05,12.033a2.018,2.018,0,0,1-2.018-2.017,2.017,2.017,0,0,1,2.018-2.017h9.276a2.015,2.015,0,0,1,2.017,2.017,2.016,2.016,0,0,1-2.017,2.017Zm-3.294-7.933A2.015,2.015,0,0,1-309-370.782a2.016,2.016,0,0,1,2.017-2.017h17.21a2.016,2.016,0,0,1,2.017,2.017,2.015,2.015,0,0,1-2.017,2.017Zm3.294-7.932a2.018,2.018,0,0,1-2.018-2.017,2.018,2.018,0,0,1,2.018-2.018h17.21a2.017,2.017,0,0,1,2.017,2.018,2.016,2.016,0,0,1-2.017,2.017Z" transform="translate(309 399)"/>
  </g>
</svg>
