<svg xmlns="http://www.w3.org/2000/svg" xmlns:xlink="http://www.w3.org/1999/xlink" width="64" height="64" viewBox="0 0 64 64">
  <defs>
    <clipPath id="clip-heart-b">
      <rect width="64" height="64"/>
    </clipPath>
  </defs>
  <g id="heart-b" clip-path="url(#clip-heart-b)">
    <path id="heart-b-2" data-name="heart-b" d="M18.716-15a19.492,19.492,0,0,0-7.045,1.345A16.939,16.939,0,0,0,5.486-9.514,16.939,16.939,0,0,0,1.345-3.329,19.492,19.492,0,0,0,0,3.716a19.492,19.492,0,0,0,1.345,7.045,16.939,16.939,0,0,0,4.141,6.185l.215.215.323.323.108.108a.31.31,0,0,1,.108.215L20.007,31.467A91.333,91.333,0,0,0,27,37.921a8.293,8.293,0,0,0,5.055,2.151,8.293,8.293,0,0,0,5.055-2.151A91.334,91.334,0,0,0,44.1,31.467L58.514,17.054a18.084,18.084,0,0,0,4.141-6.239A19.071,19.071,0,0,0,64,3.824a19.348,19.348,0,0,0-1.345-7.1,17.046,17.046,0,0,0-4.141-6.131,16.939,16.939,0,0,0-6.185-4.141,19.131,19.131,0,0,0-14.091,0,16.939,16.939,0,0,0-6.185,4.141L32-9.461l-.054-.054a16.939,16.939,0,0,0-6.185-4.141A19.492,19.492,0,0,0,18.716-15Z" transform="translate(0 19)"/>
  </g>
</svg>
