<svg xmlns="http://www.w3.org/2000/svg" xmlns:xlink="http://www.w3.org/1999/xlink" width="64" height="64" viewBox="0 0 64 64">
  <defs>
    <clipPath id="clip-heart-a">
      <rect width="64" height="64"/>
    </clipPath>
  </defs>
  <g id="heart-a" clip-path="url(#clip-heart-a)">
    <path id="heart-a-2" data-name="heart-a" d="M32,61.085l-2.308-1.631C26.648,57.305.007,37.95.007,20.268A18.756,18.756,0,0,1,18,.875,17.514,17.514,0,0,1,32,8.091,17.514,17.514,0,0,1,45.991.875,18.756,18.756,0,0,1,63.984,20.268c0,17.682-26.641,37.037-29.68,39.186ZM18,8.872a10.777,10.777,0,0,0-10,11.4C8,30.707,23.633,44.819,32,51.219c8.362-6.4,23.991-20.513,23.991-30.951a10.777,10.777,0,0,0-10-11.4,10.777,10.777,0,0,0-10,11.4H28a10.777,10.777,0,0,0-10-11.4Z" transform="translate(0.004 1.125)"/>
  </g>
</svg>
