<svg xmlns="http://www.w3.org/2000/svg" xmlns:xlink="http://www.w3.org/1999/xlink" width="64" height="64" viewBox="0 0 64 64">
  <defs>
    <clipPath id="clip-info-a">
      <rect width="64" height="64"/>
    </clipPath>
  </defs>
  <g id="info-a" clip-path="url(#clip-info-a)">
    <path id="info-a-2" data-name="info-a" d="M26.813-15.187a6.1,6.1,0,0,1,4.875,1.875,6.473,6.473,0,0,1,1.625,4.375,7.571,7.571,0,0,1-2.5,5.563A8.44,8.44,0,0,1,24.688-.937,6.336,6.336,0,0,1,20-2.625a5.962,5.962,0,0,1-1.562-4.687A8.61,8.61,0,0,1,20.5-12.5Q22.563-15.187,26.813-15.187Zm-13.125,64A4.3,4.3,0,0,1,9.75,46.625q-1.312-2.187.438-9.187l3.875-16.25a20,20,0,0,0,.563-2.812q.062-.812-.562-.812a12.8,12.8,0,0,0-3.437,1.125,27.165,27.165,0,0,0-4.562,2.375l-1.75-2.75a57.851,57.851,0,0,1,12.5-8.187q6.25-2.937,9.25-2.937,2.625,0,3.125,2.813a17.535,17.535,0,0,1-.875,7.563L23.938,34.688a7.751,7.751,0,0,0-.437,3.125q.188.875.688.875a9.513,9.513,0,0,0,3.063-.937,18.608,18.608,0,0,0,4.563-2.937l2,2.625A40.116,40.116,0,0,1,22,46.188Q16.188,48.813,13.688,48.813Z" transform="translate(12.688 15.188)"/>
  </g>
</svg>
