<svg xmlns="http://www.w3.org/2000/svg" xmlns:xlink="http://www.w3.org/1999/xlink" width="64" height="64" viewBox="0 0 64 64">
  <defs>
    <clipPath id="clip-mail-a">
      <rect width="64" height="64"/>
    </clipPath>
  </defs>
  <g id="mail-a" clip-path="url(#clip-mail-a)">
    <path id="mail-a-2" data-name="mail-a" d="M-401.11-341.065h0A5.892,5.892,0,0,1-407-346.957V-375.61c.14.1.28.206.424.3l26.224,17.493a9.625,9.625,0,0,0,10.7,0l26.226-17.5c.145-.1.285-.2.427-.3v28.658a5.894,5.894,0,0,1-5.895,5.89Zm22.842-19.866-26.226-17.493A5.615,5.615,0,0,1-407-383.108,5.9,5.9,0,0,1-401.11-389h52.218A5.9,5.9,0,0,1-343-383.11a5.627,5.627,0,0,1-2.508,4.7l-26.223,17.483a5.876,5.876,0,0,1-3.27.993A5.867,5.867,0,0,1-378.269-360.932Z" transform="translate(407 397)"/>
  </g>
</svg>
