<svg xmlns="http://www.w3.org/2000/svg" xmlns:xlink="http://www.w3.org/1999/xlink" width="64" height="64" viewBox="0 0 64 64">
  <defs>
    <clipPath id="clip-more-a">
      <rect width="64" height="64"/>
    </clipPath>
  </defs>
  <g id="more-a" clip-path="url(#clip-more-a)">
    <path id="more-a-2" data-name="more-a" d="M.984,4.219A6.138,6.138,0,0,1,2.946-.506,6.961,6.961,0,0,1,7.861-2.32,7.018,7.018,0,0,1,12.818-.506,6.138,6.138,0,0,1,14.78,4.219a6.054,6.054,0,0,1-1.941,4.662,7.047,7.047,0,0,1-4.978,1.793A6.989,6.989,0,0,1,2.925,8.881,6.054,6.054,0,0,1,.984,4.219Zm25.1,0A6.138,6.138,0,0,1,28.048-.506,6.961,6.961,0,0,1,32.963-2.32,7.018,7.018,0,0,1,37.92-.506a6.138,6.138,0,0,1,1.962,4.725,6.054,6.054,0,0,1-1.941,4.662,7.047,7.047,0,0,1-4.978,1.793,6.989,6.989,0,0,1-4.936-1.793A6.054,6.054,0,0,1,26.087,4.219Zm25.1,0A6.138,6.138,0,0,1,53.15-.506,6.961,6.961,0,0,1,58.065-2.32,7.018,7.018,0,0,1,63.023-.506a6.138,6.138,0,0,1,1.962,4.725,6.054,6.054,0,0,1-1.941,4.662,7.047,7.047,0,0,1-4.978,1.793,6.989,6.989,0,0,1-4.936-1.793A6.054,6.054,0,0,1,51.189,4.219Z" transform="translate(-0.984 28.32)"/>
  </g>
</svg>
