<svg xmlns="http://www.w3.org/2000/svg" xmlns:xlink="http://www.w3.org/1999/xlink" width="64" height="64" viewBox="0 0 64 64">
  <defs>
    <clipPath id="clip-newsletter-a">
      <rect width="64" height="64"/>
    </clipPath>
  </defs>
  <g id="newsletter-a" clip-path="url(#clip-newsletter-a)">
    <path id="newsletter-a-2" data-name="newsletter-a" d="M-283.539-125.613a2.589,2.589,0,0,1-2.584-2.582v-15.829l-21.124-7.218a2.591,2.591,0,0,1-1.615-3.283,2.571,2.571,0,0,1,1.249-1.461l58.673-30.633a2.571,2.571,0,0,1,1.353-.381,2.585,2.585,0,0,1,1.763.694,2.59,2.59,0,0,1,.785,2.343l-7.18,48.3a2.578,2.578,0,0,1-1.932,2.129v.077l-.627,0a2.585,2.585,0,0,1-.837-.14l-16.58-5.667-9.254,12.6a2.617,2.617,0,0,1-2.083,1.055Zm0-.627h0Zm2.589-9.854,3.621-4.925-3.621-1.238Zm2.045-10.932,22.024,7.527,5.506-37.057Zm-20.966-7.166,15.6,5.333,24.482-26.263Z" transform="translate(309 188)"/>
  </g>
</svg>
