<svg xmlns="http://www.w3.org/2000/svg" xmlns:xlink="http://www.w3.org/1999/xlink" width="64" height="64" viewBox="0 0 64 64">
  <defs>
    <clipPath id="clip-percent-a">
      <rect width="64" height="64"/>
    </clipPath>
  </defs>
  <g id="percent-a" clip-path="url(#clip-percent-a)">
    <path id="percent-a-2" data-name="percent-a" d="M-427.777-63.728a5.9,5.9,0,0,1,0-8.331l52.213-52.217A5.87,5.87,0,0,1-371.4-126a5.863,5.863,0,0,1,4.168,1.724,5.863,5.863,0,0,1,1.724,4.168,5.863,5.863,0,0,1-1.724,4.168l-52.217,52.213A5.841,5.841,0,0,1-423.609-62,5.868,5.868,0,0,1-427.777-63.728Zm34.423-12.2a13.945,13.945,0,0,1,13.927-13.926A13.941,13.941,0,0,1-365.5-75.926,13.938,13.938,0,0,1-379.427-62,13.941,13.941,0,0,1-393.354-75.926Zm9.907,0a4.017,4.017,0,0,0,4.02,4.015,4.016,4.016,0,0,0,4.016-4.015,4.016,4.016,0,0,0-4.016-4.015A4.019,4.019,0,0,0-383.447-75.926ZM-429.5-112.074a13.85,13.85,0,0,1,4.077-9.849A13.833,13.833,0,0,1-415.578-126a13.833,13.833,0,0,1,9.845,4.077,13.836,13.836,0,0,1,4.081,9.849,13.941,13.941,0,0,1-13.927,13.922A13.938,13.938,0,0,1-429.5-112.074Zm9.907,0a4.016,4.016,0,0,0,4.015,4.015,4.016,4.016,0,0,0,4.015-4.015,4.016,4.016,0,0,0-4.015-4.02A4.016,4.016,0,0,0-419.594-112.074Z" transform="translate(429.501 126)"/>
  </g>
</svg>
