<svg xmlns="http://www.w3.org/2000/svg" xmlns:xlink="http://www.w3.org/1999/xlink" width="64" height="64" viewBox="0 0 64 64">
  <defs>
    <clipPath id="clip-phone-a">
      <rect width="64" height="64"/>
    </clipPath>
  </defs>
  <g id="phone-a" clip-path="url(#clip-phone-a)">
    <path id="phone-a-2" data-name="phone-a" d="M58.863,42.01a36.342,36.342,0,0,1-11.412-1.829,5.216,5.216,0,0,0-5.072,1.07l-7.2,5.433A39.766,39.766,0,0,1,17.3,28.816l5.272-7.008a5.172,5.172,0,0,0,1.274-5.24A36.409,36.409,0,0,1,22.02,5.138,5.141,5.141,0,0,0,16.889,0H5.135A5.14,5.14,0,0,0,0,5.137,58.929,58.929,0,0,0,58.863,64,5.139,5.139,0,0,0,64,58.865V47.145a5.139,5.139,0,0,0-5.135-5.135" transform="translate(0.001)"/>
  </g>
</svg>
