<svg xmlns="http://www.w3.org/2000/svg" xmlns:xlink="http://www.w3.org/1999/xlink" width="64" height="64" viewBox="0 0 64 64">
  <defs>
    <clipPath id="clip-reinsurance-d">
      <rect width="64" height="64"/>
    </clipPath>
  </defs>
  <g id="reinsurance-d" clip-path="url(#clip-reinsurance-d)">
    <path id="customer-review-white" d="M81.1,48.629h0a10.249,10.249,0,0,0,2.338-6.711,6.861,6.861,0,1,0-13.722,0,11.15,11.15,0,0,0,1.53,5.62,7.911,7.911,0,0,0,.8,1.091h0a7.566,7.566,0,0,0-4.448,1.434,10.841,10.841,0,0,0-1.763-.146H64.679a10.344,10.344,0,0,0,1.843-2.194,15.393,15.393,0,0,0,2.239-8.069,9.535,9.535,0,1,0-19.069,0A15.771,15.771,0,0,0,51.854,47.6a10.332,10.332,0,0,0,1.91,2.314H52.62a10.841,10.841,0,0,0-1.763.146,7.567,7.567,0,0,0-4.448-1.434h0a7.91,7.91,0,0,0,.8-1.091,11.151,11.151,0,0,0,1.53-5.62,6.859,6.859,0,1,0-13.718,0,10.256,10.256,0,0,0,2.337,6.711h-.006a7.075,7.075,0,0,0-7.28,6.833v7.923a1.032,1.032,0,0,0,1.032,1.032H42.473v6.55A1.032,1.032,0,0,0,43.505,72H74.947a1.032,1.032,0,0,0,1.032-1.032v-6.55h11.37a1.032,1.032,0,0,0,1.032-1.032V55.463A7.077,7.077,0,0,0,81.1,48.629Zm-9.323-6.711a4.8,4.8,0,1,1,9.593,0c0,2.595-1.3,6.711-4.8,6.711S71.775,44.513,71.775,41.918Zm-12.55-9.736A7.48,7.48,0,0,1,66.7,39.654c0,.054,0,.108,0,.162a15.431,15.431,0,0,1-8.712-3.6,1.032,1.032,0,0,0-1.171-.071L51.772,39.2a7.478,7.478,0,0,1,7.453-7.018ZM53.612,46.52a13.209,13.209,0,0,1-1.72-4.981l5.386-3.261a17.226,17.226,0,0,0,9.233,3.594,12.861,12.861,0,0,1-1.731,4.741,6.523,6.523,0,0,1-5.555,3.3,6.378,6.378,0,0,1-5.613-3.4Zm-16.526-4.6a4.794,4.794,0,1,1,9.589,0c0,2.595-1.3,6.711-4.794,6.711S37.086,44.513,37.086,41.918ZM32.137,62.353v-6.89a5.013,5.013,0,0,1,5.215-4.769h9.056a5.609,5.609,0,0,1,1.641.245,9.461,9.461,0,0,0-5.578,8.474v2.94Zm41.776,7.582H68.681V63.572a1.032,1.032,0,0,0-2.065,0v6.364H51.837V63.572a1.032,1.032,0,0,0-2.065,0v6.364H44.536V59.413c0-4.1,3.626-7.432,8.083-7.432H65.831c4.457,0,8.083,3.334,8.083,7.432Zm12.4-7.582H75.978v-2.94A9.462,9.462,0,0,0,70.4,50.939a5.607,5.607,0,0,1,1.641-.245H81.1a5.015,5.015,0,0,1,5.219,4.769ZM53.489,20.291l-.805,5.587a1.032,1.032,0,0,0,1.478,1.073l5.063-2.493,5.067,2.493a1.032,1.032,0,0,0,1.478-1.073l-.805-5.587L68.9,16.245a1.032,1.032,0,0,0-.564-1.737l-5.564-.963L60.138,8.551a1.032,1.032,0,0,0-1.826,0l-2.631,4.994-5.564.963a1.032,1.032,0,0,0-.564,1.737Zm3.044-4.8a1.032,1.032,0,0,0,.737-.536l1.954-3.71,1.958,3.711a1.032,1.032,0,0,0,.737.535l4.136.716L63.13,19.216a1.032,1.032,0,0,0-.282.867l.6,4.152-3.766-1.853a1.032,1.032,0,0,0-.912,0l-3.762,1.853.6-4.151a1.032,1.032,0,0,0-.282-.867L52.4,16.208Zm-22.2,6.54-.553,3.847a1.032,1.032,0,0,0,1.478,1.073l3.487-1.718,3.483,1.717A1.032,1.032,0,0,0,43.7,25.879l-.553-3.846,2.711-2.785A1.032,1.032,0,0,0,45.3,17.51l-3.83-.663-1.812-3.435a1.032,1.032,0,0,0-1.825,0l-1.815,3.436-3.827.663a1.032,1.032,0,0,0-.564,1.737Zm2.536-3.238a1.032,1.032,0,0,0,.737-.535l1.138-2.155,1.135,2.155a1.032,1.032,0,0,0,.737.536l2.4.416-1.7,1.746a1.032,1.032,0,0,0-.282.867l.347,2.41L39.2,23.159a1.032,1.032,0,0,0-.913,0L36.1,24.236l.347-2.411a1.032,1.032,0,0,0-.282-.866l-1.7-1.748ZM75.3,22.032l-.553,3.847a1.032,1.032,0,0,0,1.478,1.073l3.487-1.718L83.2,26.952a1.032,1.032,0,0,0,1.478-1.074l-.556-3.845,2.71-2.785a1.032,1.032,0,0,0-.564-1.737l-3.831-.663-1.812-3.436a1.032,1.032,0,0,0-1.825,0l-1.815,3.436-3.827.663a1.032,1.032,0,0,0-.564,1.737Zm2.536-3.238a1.032,1.032,0,0,0,.737-.535l1.138-2.155,1.135,2.155a1.032,1.032,0,0,0,.737.536l2.4.416-1.7,1.746a1.032,1.032,0,0,0-.282.868l.348,2.409-2.185-1.076a1.033,1.033,0,0,0-.912,0l-2.186,1.077.347-2.411a1.032,1.032,0,0,0-.282-.867l-1.7-1.747Z" transform="translate(-27.073 -8)"/>
  </g>
</svg>
