<svg xmlns="http://www.w3.org/2000/svg" xmlns:xlink="http://www.w3.org/1999/xlink" width="64" height="64" viewBox="0 0 64 64">
  <defs>
    <clipPath id="clip-reinsurance-c">
      <rect width="64" height="64"/>
    </clipPath>
  </defs>
  <g id="reinsurance-c" clip-path="url(#clip-reinsurance-c)">
    <path id="contact-white" d="M-1495.75-936a1.249,1.249,0,0,1-1.25-1.249c0-7.717,5.014-14.99,11.921-17.292l5.942-1.981,2.132-4.263q-.285-.287-.551-.593a13.576,13.576,0,0,1-2.1-3.246h-1.1a3.754,3.754,0,0,1-3.749-3.75v-1.465a3.758,3.758,0,0,1-2.5-3.536v-7.875a18.739,18.739,0,0,1,18.75-18.75,18.772,18.772,0,0,1,18.75,18.75v7.875a3.754,3.754,0,0,1-3.75,3.75h-2.275l-.266,1.594a13.691,13.691,0,0,1-3.706,7.243l2.133,4.265,5.942,1.981c6.908,2.3,11.922,9.576,11.922,17.292a1.25,1.25,0,0,1-1.25,1.249ZM-1461-946.272l0,0-.019.033a50.176,50.176,0,0,1-3.445,5.266L-1466-938.5h23.948c-.5-6.192-4.616-11.821-10.162-13.671l-5.262-1.753A50.006,50.006,0,0,1-1461-946.272Zm-23.292-5.9c-5.547,1.849-9.668,7.478-10.163,13.671h23.949l-1.537-2.469a49.99,49.99,0,0,1-3.422-5.225.052.052,0,0,0-.007-.012,50.179,50.179,0,0,1-3.558-7.718Zm11.464,5.538a47.665,47.665,0,0,0,2.817,4.208c.021.028.042.058.06.089l1.7,2.722c1.782-2.858,1.7-2.729,1.756-2.811a47.635,47.635,0,0,0,2.827-4.225l-4.7-4.7Zm6.176-6.532,4.244,4.244a47.613,47.613,0,0,0,2.8-6.492l-1.7-3.4Zm-10.25-2.248a47.585,47.585,0,0,0,2.8,6.49l3.965-4.193-5.275-5.274Zm8.481.479,2.209-2.336a12.561,12.561,0,0,1-2.044.168,12.647,12.647,0,0,1-2.605-.273Zm-2.291-4.97a10.173,10.173,0,0,0,4.914,0,10.618,10.618,0,0,0,7.536-8.54c.231-1.392.321-1.89.436-2.666v0c.36-2.409.611-5.03.734-7.64l-1.841-.262a22.616,22.616,0,0,1-12.317-5.974,8.8,8.8,0,0,0-6.506,3.486l-1.683,2.243a71.505,71.505,0,0,0,1.5,12.131h3.646a3.751,3.751,0,0,1,3.536-2.5h2.5a3.755,3.755,0,0,1,3.75,3.75,3.749,3.749,0,0,1-3.75,3.75h-2.5a3.756,3.756,0,0,1-3.535-2.5h-2.549A10.137,10.137,0,0,0-1470.706-959.9Zm-1.293-5.973a1.251,1.251,0,0,0,1.249,1.25h2.5a1.251,1.251,0,0,0,1.25-1.25,1.252,1.252,0,0,0-1.25-1.25h-2.5A1.25,1.25,0,0,0-1472-965.875Zm-10-2.5a1.251,1.251,0,0,0,1.25,1.249h.226q-.108-.449-.185-.9l-.266-1.6H-1482Zm27.457-11.41c-.085,2.58-.3,5.2-.614,7.66h1.907a1.252,1.252,0,0,0,1.25-1.25V-980h-2.536C-1454.539-979.928-1454.54-979.858-1454.543-979.785Zm-29.956,6.41a1.251,1.251,0,0,0,1.249,1.25h1.909c-.311-2.407-.52-4.958-.608-7.468h0v-.013q-.008-.2-.013-.393h-2.537Zm14.634-13.759a20.086,20.086,0,0,0,11.292,5.647l1.563.223s0-.008,0-.012c.006-.311.01-.654.01-1.047a10.165,10.165,0,0,0-10.131-10.177h-2.238a10.162,10.162,0,0,0-10.076,9.114,11.309,11.309,0,0,1,8.695-4.114A1.25,1.25,0,0,1-1469.866-987.134Zm2.735-7.866a12.66,12.66,0,0,1,12.629,12.5h2.455a16.271,16.271,0,0,0-16.2-15,16.24,16.24,0,0,0-16.2,15H-1482a12.662,12.662,0,0,1,12.63-12.5Zm19.088,52.559a9.987,9.987,0,0,0-2.826-3.431,1.25,1.25,0,0,1-.229-1.753,1.248,1.248,0,0,1,1.753-.229,12.5,12.5,0,0,1,3.539,4.3,1.25,1.25,0,0,1-.56,1.677,1.243,1.243,0,0,1-.557.132A1.251,1.251,0,0,1-1448.043-942.441Zm-7.707-6.808a1.251,1.251,0,0,1,1.25-1.25,1.25,1.25,0,0,1,1.249,1.25A1.25,1.25,0,0,1-1454.5-948,1.25,1.25,0,0,1-1455.75-949.25Z" transform="translate(1500 1000)"/>
  </g>
</svg>
