<svg xmlns="http://www.w3.org/2000/svg" xmlns:xlink="http://www.w3.org/1999/xlink" width="64" height="64" viewBox="0 0 64 64">
  <defs>
    <clipPath id="clip-reinsurance-a">
      <rect width="64" height="64"/>
    </clipPath>
  </defs>
  <g id="reinsurance-a" clip-path="url(#clip-reinsurance-a)">
    <path id="rabatt-white" d="M-1470.174-937.578l-3.906-3.779a1.876,1.876,0,0,0-1.577-.512l-5.381.761a5.763,5.763,0,0,1-.8.056,5.551,5.551,0,0,1-5.476-4.616l-.94-5.354a1.873,1.873,0,0,0-.974-1.34l-4.8-2.548a5.556,5.556,0,0,1-2.4-7.378l2.387-4.884a1.874,1.874,0,0,0,0-1.657l-2.387-4.883a5.557,5.557,0,0,1,2.4-7.378l4.8-2.547a1.876,1.876,0,0,0,.974-1.341l.94-5.354a5.556,5.556,0,0,1,6.276-4.56l5.381.761a1.877,1.877,0,0,0,1.577-.512l3.906-3.779a5.556,5.556,0,0,1,7.758,0l3.906,3.779a1.873,1.873,0,0,0,1.577.513l5.382-.761a5.556,5.556,0,0,1,6.276,4.559l.939,5.353a1.876,1.876,0,0,0,.974,1.341l4.8,2.548a5.556,5.556,0,0,1,2.4,7.378l-2.387,4.883a1.876,1.876,0,0,0,0,1.658l2.387,4.883a5.557,5.557,0,0,1-2.4,7.379l-4.8,2.548a1.878,1.878,0,0,0-.974,1.341l-.939,5.353a5.555,5.555,0,0,1-6.276,4.56l-5.382-.761a1.878,1.878,0,0,0-1.577.512l-3.906,3.779a5.57,5.57,0,0,1-3.879,1.578A5.561,5.561,0,0,1-1470.174-937.578Zm-1.34-6.432,3.906,3.779a1.879,1.879,0,0,0,2.624,0l3.907-3.779a5.542,5.542,0,0,1,4.66-1.514l5.381.761a1.88,1.88,0,0,0,2.124-1.543l.939-5.354a5.544,5.544,0,0,1,2.88-3.964l4.8-2.548a1.879,1.879,0,0,0,.811-2.5l-2.387-4.883a5.55,5.55,0,0,1,0-4.9l2.387-4.883a1.878,1.878,0,0,0-.811-2.5l-4.8-2.547a5.542,5.542,0,0,1-2.88-3.964l-.94-5.353a1.878,1.878,0,0,0-2.123-1.543l-5.381.761a5.543,5.543,0,0,1-4.66-1.514l-3.907-3.779a1.879,1.879,0,0,0-2.624,0l-3.907,3.779a5.544,5.544,0,0,1-4.66,1.514l-5.381-.761a1.879,1.879,0,0,0-2.123,1.543l-.94,5.353a5.539,5.539,0,0,1-2.88,3.964l-4.8,2.547a1.878,1.878,0,0,0-.811,2.5l2.387,4.884a5.546,5.546,0,0,1,0,4.9l-2.387,4.883a1.879,1.879,0,0,0,.811,2.5l4.8,2.548a5.541,5.541,0,0,1,2.881,3.964l.939,5.354a1.88,1.88,0,0,0,2.123,1.543l5.381-.761a5.66,5.66,0,0,1,.795-.057A5.538,5.538,0,0,1-1471.513-944.01Zm5.833-14.146a6.775,6.775,0,0,1,6.767-6.767,6.774,6.774,0,0,1,6.767,6.767,6.774,6.774,0,0,1-6.767,6.767A6.775,6.775,0,0,1-1465.68-958.157Zm3.691,0a3.079,3.079,0,0,0,3.076,3.076,3.079,3.079,0,0,0,3.076-3.076,3.079,3.079,0,0,0-3.076-3.076A3.079,3.079,0,0,0-1461.989-958.157Zm-17.792,3.642a1.846,1.846,0,0,1,0-2.61l24.36-24.361a1.846,1.846,0,0,1,2.61,0,1.846,1.846,0,0,1,0,2.61l-24.361,24.361a1.836,1.836,0,0,1-1.3.541A1.84,1.84,0,0,1-1479.781-954.515Zm-.664-23.328a6.775,6.775,0,0,1,6.767-6.768,6.776,6.776,0,0,1,6.767,6.768,6.775,6.775,0,0,1-6.767,6.767A6.775,6.775,0,0,1-1480.445-977.843Zm3.691,0a3.08,3.08,0,0,0,3.076,3.077,3.08,3.08,0,0,0,3.076-3.077,3.079,3.079,0,0,0-3.076-3.076A3.079,3.079,0,0,0-1476.753-977.844Z" transform="translate(1498 1000)"/>
  </g>
</svg>
