<svg xmlns="http://www.w3.org/2000/svg" xmlns:xlink="http://www.w3.org/1999/xlink" width="64" height="64" viewBox="0 0 64 64">
  <defs>
    <clipPath id="clip-reinsurance-b">
      <rect width="64" height="64"/>
    </clipPath>
  </defs>
  <g id="reinsurance-b" clip-path="url(#clip-reinsurance-b)">
    <path id="delivery-white" d="M-1456.458-961.613h-11.974a8.081,8.081,0,0,1-7.794,5.983,8.082,8.082,0,0,1-7.794-5.983h-5.248a2.017,2.017,0,0,1-2.017-2.017,2.017,2.017,0,0,1,2.017-2.017h5.213a8.081,8.081,0,0,1,7.829-6.118,8.081,8.081,0,0,1,7.829,6.118h11.9a8.082,8.082,0,0,1,7.829-6.118,8.081,8.081,0,0,1,7.829,6.118h3.8v-10.4l-2.937-3.784h-15.685a2.017,2.017,0,0,1-2.017-2.017v-14.118h-31.6a2.017,2.017,0,0,1-2.017-2.016,2.017,2.017,0,0,1,2.017-2.017h33.613a2.017,2.017,0,0,1,2.017,2.017v2.016h8.6a2.019,2.019,0,0,1,1.8,1.111l6.05,12.033,0,0,3.761,4.844a2.019,2.019,0,0,1,.423,1.237v13.109a2.016,2.016,0,0,1-2.017,2.017h-5.853a8.081,8.081,0,0,1-7.794,5.984A8.082,8.082,0,0,1-1456.458-961.613Zm3.761-2.084a4.038,4.038,0,0,0,4.033,4.034,4.038,4.038,0,0,0,4.034-4.034,4.038,4.038,0,0,0-4.034-4.033A4.037,4.037,0,0,0-1452.7-963.7Zm-27.562,0a4.037,4.037,0,0,0,4.033,4.034,4.037,4.037,0,0,0,4.033-4.034,4.037,4.037,0,0,0-4.033-4.033A4.037,4.037,0,0,0-1480.26-963.7Zm26.622-20.168h11.417l-4.056-8.067h-7.361Zm-38.051,12.033a2.016,2.016,0,0,1-2.017-2.016,2.016,2.016,0,0,1,2.017-2.017h9.277a2.017,2.017,0,0,1,2.017,2.017,2.017,2.017,0,0,1-2.017,2.016Zm-3.295-7.932a2.016,2.016,0,0,1-2.016-2.017,2.017,2.017,0,0,1,2.016-2.017h17.21a2.017,2.017,0,0,1,2.017,2.017,2.017,2.017,0,0,1-2.017,2.017Zm3.295-7.933a2.016,2.016,0,0,1-2.017-2.016,2.017,2.017,0,0,1,2.017-2.017h17.21a2.016,2.016,0,0,1,2.016,2.017,2.016,2.016,0,0,1-2.016,2.016Z" transform="translate(1497 1010)"/>
  </g>
</svg>
