<svg xmlns="http://www.w3.org/2000/svg" xmlns:xlink="http://www.w3.org/1999/xlink" width="64" height="64" viewBox="0 0 64 64">
  <defs>
    <clipPath id="clip-reload-a">
      <rect width="64" height="64"/>
    </clipPath>
  </defs>
  <g id="reload-a" clip-path="url(#clip-reload-a)">
    <path id="reload-a-2" data-name="reload-a" d="M-594.264-152.172a32.547,32.547,0,0,1-.436-25.08,32.649,32.649,0,0,1,8.055-11.9h-3.777v-6.41h17.628v18.128h-6.41v-9.5a26.173,26.173,0,0,0-9.534,12.029,26.188,26.188,0,0,0,.352,20.173,26.315,26.315,0,0,0,19.428,15.422L-570.114-133A32.715,32.715,0,0,1-594.264-152.172Zm36.947,17.729v-18.125h6.41v9.5a26.178,26.178,0,0,0,9.534-12.027,26.206,26.206,0,0,0-.352-20.176,26.32,26.32,0,0,0-19.428-15.422L-560-197a32.715,32.715,0,0,1,24.154,19.172,32.549,32.549,0,0,1,.436,25.08,32.647,32.647,0,0,1-8.051,11.9h3.774v6.41Z" transform="translate(597 197)"/>
  </g>
</svg>
