<svg xmlns="http://www.w3.org/2000/svg" xmlns:xlink="http://www.w3.org/1999/xlink" width="64" height="64" viewBox="0 0 64 64">
  <defs>
    <clipPath id="clip-sign-out-a">
      <rect width="64" height="64"/>
    </clipPath>
  </defs>
  <g id="sign-out-a" clip-path="url(#clip-sign-out-a)">
    <path id="sign-out-a-2" data-name="sign-out-a" d="M-492.751-133A8.258,8.258,0,0,1-501-141.247v-47.5A8.258,8.258,0,0,1-492.751-197h17.09a8.258,8.258,0,0,1,8.249,8.249v14.4h-5.94v-14.4a2.312,2.312,0,0,0-2.309-2.311h-17.09a2.312,2.312,0,0,0-2.309,2.311v47.5a2.311,2.311,0,0,0,2.309,2.309h17.09a2.311,2.311,0,0,0,2.309-2.309v-14.406h5.94v14.406A8.258,8.258,0,0,1-475.661-133Zm34.9-18.014,11.016-11.016h-36.7v-5.94h36.7l-11.016-11.016,4.195-4.211,12.883,12.885.416.4a6.884,6.884,0,0,1,2.031,4.9,6.882,6.882,0,0,1-2.031,4.9l-13.3,13.3Z" transform="translate(502 197)"/>
  </g>
</svg>
