<svg xmlns="http://www.w3.org/2000/svg" xmlns:xlink="http://www.w3.org/1999/xlink" width="64" height="64" viewBox="0 0 64 64">
  <defs>
    <clipPath id="clip-user-a">
      <rect width="64" height="64"/>
    </clipPath>
  </defs>
  <g id="user-a" clip-path="url(#clip-user-a)">
    <path id="user-a-2" data-name="user-a" d="M-365-37V-50.332a5.334,5.334,0,0,0-5.335-5.333h-21.332A5.334,5.334,0,0,0-397-50.332V-37h-8V-50.332a13.352,13.352,0,0,1,13.335-13.335h21.332A13.352,13.352,0,0,1-357-50.332V-37Zm-32-48a16,16,0,0,1,16-16,16,16,0,0,1,16,16,16.018,16.018,0,0,1-16,16A16,16,0,0,1-397-85Zm8,0a8,8,0,0,0,8,8,8,8,0,0,0,8-8,8,8,0,0,0-8-8A8,8,0,0,0-389-85Z" transform="translate(413 101)"/>
  </g>
</svg>
