<svg xmlns="http://www.w3.org/2000/svg" viewBox="0 0 653.25 124.01" class="brandlogo"><path class="brandlogo__wordmark" fill="#303233" d="M211.18 52.35c-2.26-.39-4.11-.58-5.55-.58-5.88-.16-10.53 2.04-13.96 6.6l-7.3 41.35H167.9l10.98-63.2 15.48-.06-1.52 7.71c3.97-5.96 8.88-8.94 14.72-8.94 1.64 0 3.54.27 5.72.82l-2.1 16.3zm35.36 47.36c-.51-1.6-.72-3.5-.64-5.72-4.75 4.75-10.12 7.05-16.12 6.89-5.53-.08-10.11-1.88-13.75-5.4s-5.34-7.87-5.11-13.05c.27-6.89 3.16-12.18 8.67-15.86s12.9-5.52 22.17-5.52l7.71.12.82-3.8c.23-1.29.29-2.51.17-3.68-.19-1.83-.89-3.26-2.07-4.29-1.19-1.03-2.76-1.57-4.7-1.61-2.57-.08-4.75.55-6.54 1.9-1.79 1.34-2.94 3.28-3.45 5.81l-16.53.06c.27-6.03 3.05-10.93 8.32-14.69 5.28-3.76 11.79-5.6 19.54-5.52 7.16.16 12.77 2.29 16.82 6.4s5.74 9.39 5.08 15.86l-4.85 30.25-.29 3.74c-.08 2.76.25 5.1.99 7.01l-.06 1.11h-16.18zm-12.67-11.62c4.75.16 8.9-1.91 12.44-6.19l2.04-10.92-5.72-.06c-6.07.16-10.45 2.01-13.14 5.55-.97 1.29-1.58 2.86-1.81 4.73-.31 2.1.13 3.77 1.31 4.99 1.19 1.23 2.81 1.86 4.88 1.9zm97.64-19.8c-.82 6.62-2.55 12.5-5.2 17.64s-5.94 8.96-9.87 11.45-8.29 3.68-13.08 3.56c-6.11-.16-10.94-2.43-14.48-6.83l-5.87 29.9h-16.5l15.24-87.49 15.19-.06-1.11 6.37c4.56-5.14 9.93-7.63 16.12-7.48 6.19.16 11 2.4 14.43 6.75 3.43 4.34 5.26 10.23 5.49 17.67.08 2.41-.04 5.26-.35 8.53zm-16.35-1.2l.35-5.62c.08-3.78-.61-6.79-2.07-9.01s-3.59-3.37-6.4-3.45c-4.79-.16-8.74 1.87-11.86 6.08l-4.73 26.09c1.44 3.94 4.54 5.99 9.29 6.14 3.97.12 7.28-1.42 9.93-4.62s4.48-8.4 5.49-15.62zm37.4 32.62h-16.59l10.98-63.2h16.59l-10.98 63.2zm-3.68-79.26c-.08-2.61.78-4.77 2.57-6.48s3.95-2.57 6.48-2.57c2.49-.08 4.65.68 6.48 2.28s2.78 3.66 2.86 6.19c.08 2.41-.73 4.52-2.42 6.31s-3.9 2.73-6.63 2.8c-2.45.08-4.6-.66-6.45-2.22s-2.81-3.66-2.89-6.31zm47.22 14.84c5.88.16 10.63 2.51 14.25 7.07L416.16 12h16.56l-15.19 87.71h-14.72l.93-6.78c-4.71 5.49-10.2 8.16-16.47 8-3.93-.04-7.38-1.07-10.34-3.1-2.96-2.02-5.25-4.94-6.86-8.73-1.62-3.8-2.5-8.03-2.66-12.7-.12-2.45-.06-4.83.17-7.13l.35-2.63c.93-6.46 2.74-12.15 5.4-17.05 2.67-4.91 5.94-8.55 9.81-10.92s8.18-3.5 12.94-3.39zm-11.97 33.99c-.31 2.96-.41 5.45-.29 7.48.39 6.85 3.15 10.34 8.29 10.45 4.63.19 8.66-1.99 12.09-6.54l4.5-25.12c-1.52-4.17-4.55-6.35-9.11-6.54-4.01-.12-7.35 1.43-10.02 4.64s-4.49 8.42-5.46 15.62zm72.4-32.82l-1.34 7.18c5.1-5.68 11.27-8.45 18.52-8.29 3.89.08 7.12.97 9.7 2.69 2.57 1.71 4.3 4.03 5.2 6.95 5.57-6.58 12.11-9.79 19.63-9.64 5.8.12 10.17 2.1 13.11 5.96 2.94 3.85 4.17 9.42 3.71 16.7l-.12 1.46-6.72 40.24h-16.53l6.72-40.41a28.33 28.33 0 0 0 .17-4.03c-.27-4.09-2.61-6.2-7.01-6.32-4.52 0-8.39 2.42-11.62 7.25l-.17 1.34-7.36 42.16h-16.47l6.72-40.24a28.27 28.27 0 0 0 .17-4.03c-.27-4.13-2.59-6.25-6.95-6.37-4.17-.12-7.92 1.85-11.27 5.9l-7.89 44.74h-16.47l10.92-63.2 15.36-.06zm109.24 63.25c-.5-1.6-.72-3.5-.64-5.72-4.75 4.75-10.12 7.05-16.12 6.89-5.53-.08-10.11-1.88-13.75-5.4s-5.35-7.87-5.11-13.05c.27-6.89 3.16-12.18 8.67-15.86s12.9-5.52 22.16-5.52l7.71.12.82-3.8c.23-1.29.29-2.51.17-3.68-.19-1.83-.89-3.26-2.07-4.29-1.19-1.03-2.76-1.57-4.7-1.61-2.57-.08-4.75.55-6.54 1.9s-2.94 3.28-3.45 5.81l-16.53.06c.27-6.03 3.05-10.93 8.32-14.69 5.28-3.76 11.79-5.6 19.54-5.52 7.16.16 12.77 2.29 16.82 6.4s5.74 9.39 5.08 15.86l-4.85 30.25-.29 3.74c-.08 2.76.25 5.1.99 7.01l-.06 1.11h-16.18zM553.1 88.09c4.75.16 8.9-1.91 12.44-6.19l2.04-10.92-5.72-.06c-6.07.16-10.45 2.01-13.14 5.55-.97 1.29-1.58 2.86-1.81 4.73-.31 2.1.13 3.77 1.31 4.99 1.19 1.23 2.81 1.86 4.88 1.9zM608 99.71h-16.59l10.98-63.2h16.59L608 99.71zm-3.68-79.26c-.08-2.61.78-4.77 2.57-6.48s3.95-2.57 6.48-2.57c2.49-.08 4.65.68 6.48 2.28s2.78 3.66 2.86 6.19c.08 2.41-.73 4.52-2.43 6.31-1.69 1.79-3.9 2.73-6.63 2.8-2.45.08-4.61-.66-6.46-2.22s-2.81-3.66-2.89-6.31zm33.74 79.26h-16.59L636.72 12h16.53l-15.19 87.71z"/><path class="brandlogo__logomark" fill="#ff1f44" d="M3.12 56.14l24.09 12.31a5.69 5.69 0 0 0 5.32-.07l57.43-31.73c5.67-2.92 12.03 4.56 6.33 9.78L57.98 74.91c-3.39 2.55-2.93 7.77.84 9.7L86.9 99.32c2.56 1.31 5.65 1.05 7.28-1.31l60.89-89c3.09-4.49-1.23-10.36-6.42-8.73L4.02 45.57c-4.89 1.53-5.46 8.23-.89 10.57zm45.07 54.82l7.24-7.21c1.66-1.59 1.16-4.47-.88-5.52l-12.4-6.38c-2.74-1.42-5.53 1-4.41 3.88l4.39 14.31c.86 2.22 4.33 2.57 6.05.92z" fill-rule="evenodd"/></svg>
