<svg id="DHL-main-logo" xmlns="http://www.w3.org/2000/svg" width="230" height="70" viewBox="0 0 230 70">
  <g id="brand_dhl-logo_1-base-unit-safe-space_size-8x16" data-name="brand/dhl-logo/1-base-unit-safe-space/size-8x16">
    <rect id="brand_dhl-logo_1-base-unit-safe-space_size-8x16_background" data-name="brand/dhl-logo/1-base-unit-safe-space/size-8x16 background" width="230" height="70" fill="none"/>
    <rect id="brand_dhl-logo_postyellow-box_size-8x16_background" data-name="brand/dhl-logo/postyellow-box/size-8x16 background" width="185" height="26" transform="translate(23 22.489)" fill="none"/>
  </g>
  <g id="Group_2701" data-name="Group 2701" transform="translate(23 23)">
    <path id="Shape-path" d="M0,0H22.15L20.862,1.7H0Z" transform="translate(0 22.193)" fill="#d40511"/>
    <path id="Shape-path-2" data-name="Shape-path" d="M27.107,1.7H0L1.352,0H27.107Z" transform="translate(157.434 22.193)" fill="#d40511"/>
    <path id="Shape-path-3" data-name="Shape-path" d="M0,0H24.661L23.309,1.7H0V0Z" transform="translate(0 19.041)" fill="#d40511"/>
    <path id="Shape-path-4" data-name="Shape-path" d="M0,0H27.172L25.82,1.7H0Z" transform="translate(0 15.887)" fill="#d40511"/>
    <path id="Shape-path-5" data-name="Shape-path" d="M24.6,1.7H0L1.352,0H24.6Z" transform="translate(159.943 19.041)" fill="#d40511"/>
    <path id="Shape-path-6" data-name="Shape-path" d="M1.352,0H22.085V1.7H0L1.352,0Z" transform="translate(162.456 15.887)" fill="#d40511"/>
    <path id="Shape-path-7" data-name="Shape-path" d="M0,14.735,11.719,0H26.27c1.61,0,1.61.546.773,1.577-.773.97-2.125,2.729-2.962,3.76-.386.546-1.159,1.455,1.288,1.455H44.814a20.579,20.579,0,0,1-16.29,8C20.926,14.735,0,14.735,0,14.735Z" transform="translate(23.888 9.156)" fill="#d40511"/>
    <path id="Shape-path-8" data-name="Shape-path" d="M23.115,0,16.741,8H0L6.374,0Z" transform="translate(68.715 15.887)" fill="#d40511"/>
    <path id="Shape-path-9" data-name="Shape-path" d="M23.115,0,16.741,8H0L6.374,0Z" transform="translate(93.231 15.887)" fill="#d40511"/>
    <path id="Shape-path-10" data-name="Shape-path" d="M2.633,0S1.409,1.577.83,2.3C-1.3,4.912.572,8,7.462,8H34.376L40.75,0Z" transform="translate(120.03 15.887)" fill="#d40511"/>
    <path id="Shape-path-11" data-name="Shape-path" d="M5.859,0,0,7.337H31.808c1.61,0,1.61.546.773,1.577-.773.97-2.125,2.729-2.962,3.76-.386.485-1.159,1.455,1.288,1.455H43.913l3.863-4.851C50.158,6.306,47.969.061,39.47.061,31.808,0,5.859,0,5.859,0Z" transform="translate(26.269 0)" fill="#d40511"/>
    <path id="Shape-path-12" data-name="Shape-path" d="M41.015,14.068H0L11.2,0H27.944L21.57,8.065h7.469L35.478,0H52.219l-11.2,14.068Z" transform="translate(76.816 0)" fill="#d40511"/>
    <path id="Shape-path-13" data-name="Shape-path" d="M28.975,0l-11.2,14.068H0L11.2,0Z" transform="translate(123.669 0)" fill="#d40511"/>
  </g>
</svg>
