<svg xmlns="http://www.w3.org/2000/svg" width="45.301" height="7.315" viewBox="0 0 45.301 7.315">
  <path id="lastschrift" d="M1.995-1.118H4.949V0H.6V-6.754H1.995ZM8.568,0a1.489,1.489,0,0,1-.135-.45A1.622,1.622,0,0,1,7.167.093,1.782,1.782,0,0,1,5.944-.334,1.373,1.373,0,0,1,5.46-1.41a1.418,1.418,0,0,1,.591-1.225A2.918,2.918,0,0,1,7.76-3.066h.617v-.288A.827.827,0,0,0,8.2-3.91a.7.7,0,0,0-.564-.209.8.8,0,0,0-.531.162.552.552,0,0,0-.193.445H5.571a1.347,1.347,0,0,1,.269-.807A1.778,1.778,0,0,1,6.6-4.9a2.772,2.772,0,0,1,1.1-.211,2.19,2.19,0,0,1,1.473.466,1.631,1.631,0,0,1,.545,1.31V-1.16a2.4,2.4,0,0,0,.2,1.081V0ZM7.459-.932a1.155,1.155,0,0,0,.547-.132.868.868,0,0,0,.371-.355v-.863h-.5q-1.007,0-1.072.7l0,.079a.537.537,0,0,0,.176.413A.685.685,0,0,0,7.459-.932Zm6.012-.455a.432.432,0,0,0-.244-.387,2.766,2.766,0,0,0-.782-.253Q10.655-2.4,10.655-3.549a1.379,1.379,0,0,1,.554-1.116,2.236,2.236,0,0,1,1.45-.448,2.407,2.407,0,0,1,1.528.45,1.418,1.418,0,0,1,.573,1.169H13.42a.649.649,0,0,0-.186-.475.785.785,0,0,0-.58-.188A.8.8,0,0,0,12.13-4a.483.483,0,0,0-.186.39.413.413,0,0,0,.211.359,2.171,2.171,0,0,0,.712.237,5.816,5.816,0,0,1,.844.225,1.387,1.387,0,0,1,1.062,1.35,1.309,1.309,0,0,1-.589,1.111,2.541,2.541,0,0,1-1.521.424,2.654,2.654,0,0,1-1.12-.225,1.88,1.88,0,0,1-.768-.617A1.433,1.433,0,0,1,10.5-1.6h1.271a.7.7,0,0,0,.264.547,1.049,1.049,0,0,0,.659.19A.971.971,0,0,0,13.274-1,.455.455,0,0,0,13.471-1.387Zm3.771-4.866v1.234H18.1v.983h-.858v2.5a.6.6,0,0,0,.107.4.536.536,0,0,0,.408.121,2.138,2.138,0,0,0,.394-.032V-.028a2.76,2.76,0,0,1-.812.121A1.28,1.28,0,0,1,15.9-1.331v-2.7h-.733v-.983H15.9V-6.253Zm4.323,4.866a.432.432,0,0,0-.244-.387,2.766,2.766,0,0,0-.782-.253Q18.75-2.4,18.75-3.549A1.379,1.379,0,0,1,19.3-4.664a2.236,2.236,0,0,1,1.45-.448,2.407,2.407,0,0,1,1.528.45,1.418,1.418,0,0,1,.573,1.169H21.514a.649.649,0,0,0-.186-.475.785.785,0,0,0-.58-.188A.8.8,0,0,0,20.225-4a.483.483,0,0,0-.186.39.413.413,0,0,0,.211.359,2.171,2.171,0,0,0,.712.237,5.816,5.816,0,0,1,.844.225,1.387,1.387,0,0,1,1.062,1.35A1.309,1.309,0,0,1,22.28-.332a2.541,2.541,0,0,1-1.521.424,2.654,2.654,0,0,1-1.12-.225,1.88,1.88,0,0,1-.768-.617,1.433,1.433,0,0,1-.278-.847h1.271a.7.7,0,0,0,.264.547,1.049,1.049,0,0,0,.659.19A.971.971,0,0,0,21.368-1,.455.455,0,0,0,21.565-1.387Zm4.254.4a.879.879,0,0,0,.6-.2.715.715,0,0,0,.241-.543H27.92a1.72,1.72,0,0,1-.278.935,1.836,1.836,0,0,1-.749.659,2.345,2.345,0,0,1-1.051.234,2.179,2.179,0,0,1-1.7-.684,2.708,2.708,0,0,1-.622-1.89V-2.57a2.677,2.677,0,0,1,.617-1.851,2.154,2.154,0,0,1,1.693-.691,2.111,2.111,0,0,1,1.51.536A1.9,1.9,0,0,1,27.92-3.15H26.663a.921.921,0,0,0-.241-.637.8.8,0,0,0-.612-.245.807.807,0,0,0-.707.341,1.979,1.979,0,0,0-.239,1.108v.139A2,2,0,0,0,25.1-1.327.818.818,0,0,0,25.819-.988Zm4.175-3.484a1.673,1.673,0,0,1,1.341-.64q1.633,0,1.656,1.9V0H31.65V-3.177a.932.932,0,0,0-.186-.638.8.8,0,0,0-.617-.206.912.912,0,0,0-.854.455V0H28.653V-7.125h1.341Zm6.828.71a3.642,3.642,0,0,0-.482-.037.982.982,0,0,0-1,.515V0H34V-5.019h1.266l.037.6a1.242,1.242,0,0,1,1.118-.691,1.4,1.4,0,0,1,.417.06ZM38.881,0H37.536V-5.019h1.345ZM37.457-6.318a.66.66,0,0,1,.2-.5.758.758,0,0,1,.55-.195.76.76,0,0,1,.547.195.656.656,0,0,1,.2.5.658.658,0,0,1-.206.5.762.762,0,0,1-.545.195.762.762,0,0,1-.545-.195A.658.658,0,0,1,37.457-6.318ZM40.352,0V-4.036H39.6v-.983h.747v-.427a1.733,1.733,0,0,1,.485-1.31,1.877,1.877,0,0,1,1.357-.466,3.134,3.134,0,0,1,.682.093l-.014,1.039a1.709,1.709,0,0,0-.408-.042q-.756,0-.756.71v.4h1v.983h-1V0ZM45-6.253v1.234h.858v.983H45v2.5a.6.6,0,0,0,.107.4.536.536,0,0,0,.408.121,2.138,2.138,0,0,0,.394-.032V-.028a2.76,2.76,0,0,1-.812.121,1.28,1.28,0,0,1-1.438-1.424v-2.7h-.733v-.983h.733V-6.253Z" transform="translate(-0.603 7.222)" fill="#fff"/>
</svg>
