<svg xmlns="http://www.w3.org/2000/svg" width="94.297" height="25" viewBox="0 0 94.297 25">
  <g id="paypal-rgb" transform="translate(936.898 -21.779)">
    <path id="Pfad_201" data-name="Pfad 201" d="M-835.446,39.734a.394.394,0,0,0-.389.333l-2.246,14.246a.365.365,0,0,0,.083.294.365.365,0,0,0,.277.128h2.664a.394.394,0,0,0,.389-.333l.66-4.184a.394.394,0,0,1,.389-.333h2.422a5.745,5.745,0,0,0,5.671-4.863,4.661,4.661,0,0,0-4.886-5.288Zm2.59,3.18h1.938c1.6,0,2.115.941,1.951,1.982a2.226,2.226,0,0,1-2.515,1.812h-1.973Zm12.749.968a6.06,6.06,0,0,0-2.316.5,6.051,6.051,0,0,0-3.357,3.8S-827.074,52-824.151,54.1a4.991,4.991,0,0,0,5.763-.124l-.053.335a.365.365,0,0,0,.083.293.365.365,0,0,0,.277.128h2.529a.394.394,0,0,0,.389-.333l1.538-9.756a.365.365,0,0,0-.083-.294.365.365,0,0,0-.277-.128h-2.529a.394.394,0,0,0-.389.333l-.083.525a4.392,4.392,0,0,0-3.123-1.2Zm.083,3.081a2.591,2.591,0,0,1,.794.117,2.237,2.237,0,0,1,1.531,2.535,2.833,2.833,0,0,1-2.84,2.429,2.594,2.594,0,0,1-.794-.116,2.24,2.24,0,0,1-1.534-2.535,2.837,2.837,0,0,1,2.843-2.43Z" transform="translate(-71.299 -12.956)" fill="#003087"/>
    <path id="Pfad_202" data-name="Pfad 202" d="M-704.646,39.734a.394.394,0,0,0-.389.333l-2.246,14.246a.364.364,0,0,0,.083.294.365.365,0,0,0,.277.128h2.664a.394.394,0,0,0,.389-.333l.66-4.184a.394.394,0,0,1,.389-.333h2.422a5.744,5.744,0,0,0,5.671-4.863,4.66,4.66,0,0,0-4.886-5.288Zm2.59,3.18h1.938c1.6,0,2.115.941,1.951,1.982a2.226,2.226,0,0,1-2.515,1.812h-1.972Zm12.749.968a6.059,6.059,0,0,0-2.316.5,6.05,6.05,0,0,0-3.357,3.8S-696.274,52-693.35,54.1a4.99,4.99,0,0,0,5.763-.124l-.053.335a.365.365,0,0,0,.083.294.365.365,0,0,0,.277.128h2.529a.394.394,0,0,0,.389-.333l1.539-9.756a.365.365,0,0,0-.083-.294.365.365,0,0,0-.277-.128h-2.529a.394.394,0,0,0-.389.333l-.083.525a4.392,4.392,0,0,0-3.123-1.2Zm.083,3.081a2.59,2.59,0,0,1,.794.117,2.237,2.237,0,0,1,1.531,2.535,2.833,2.833,0,0,1-2.84,2.429,2.594,2.594,0,0,1-.794-.116,2.24,2.24,0,0,1-1.534-2.535,2.837,2.837,0,0,1,2.843-2.43Z" transform="translate(-165.68 -12.956)" fill="#0070e0"/>
    <path id="Pfad_203" data-name="Pfad 203" d="M-746.687,55.858a.3.3,0,0,0-.282.386l2.773,8.6L-746.7,68.9a.3.3,0,0,0,.251.451h2.963a.493.493,0,0,0,.421-.238l7.744-12.81a.3.3,0,0,0-.253-.449h-2.963a.493.493,0,0,0-.424.242l-3.048,5.146-1.547-5.108a.4.4,0,0,0-.377-.28Z" transform="translate(-137.035 -24.59)" fill="#003087"/>
    <path id="Pfad_204" data-name="Pfad 204" d="M-615.95,39.734a.394.394,0,0,0-.389.333l-2.247,14.246a.365.365,0,0,0,.083.294.365.365,0,0,0,.277.128h2.664a.394.394,0,0,0,.389-.333l2.246-14.246a.365.365,0,0,0-.083-.293.365.365,0,0,0-.277-.128Z" transform="translate(-229.679 -12.956)" fill="#0070e0"/>
    <path id="Pfad_205" data-name="Pfad 205" d="M-913.279,39.734a.721.721,0,0,0-.712.608l-1.182,7.5a.72.72,0,0,1,.712-.608H-911a7.077,7.077,0,0,0,6.987-5.992,5.783,5.783,0,0,0,.068-.778,6.577,6.577,0,0,0-3.068-.731Z" transform="translate(-15.676 -12.956)" fill="#001c64"/>
    <path id="Pfad_206" data-name="Pfad 206" d="M-908.542,42.359a5.783,5.783,0,0,1-.068.778,7.077,7.077,0,0,1-6.987,5.992h-3.465a.72.72,0,0,0-.712.608l-1.087,6.892-.681,4.324a.585.585,0,0,0,.133.472.585.585,0,0,0,.445.205h3.761a.721.721,0,0,0,.712-.608l.991-6.283a.721.721,0,0,1,.712-.608h2.214a7.077,7.077,0,0,0,6.987-5.992,5.493,5.493,0,0,0-2.954-5.778Z" transform="translate(-11.074 -14.85)" fill="#0070e0"/>
    <path id="Pfad_207" data-name="Pfad 207" d="M-933.228,21.779a.72.72,0,0,0-.712.608L-936.891,41.1a.586.586,0,0,0,.578.677h4.377l1.087-6.892,1.182-7.5a.721.721,0,0,1,.712-.608h6.27a6.58,6.58,0,0,1,3.068.731,5.776,5.776,0,0,0-6.09-5.73Z" transform="translate(0)" fill="#003087"/>
  </g>
</svg>
