<svg xmlns="http://www.w3.org/2000/svg" width="70.186" height="19" viewBox="0 0 70.186 19">
  <path id="paypal-white" d="M-2504.353-981.728l1.693-2.949s.137-.171.015-1.131c-.26-1.742-1.561-9.142-1.561-9.142a.565.565,0,0,1,.573-.73l1.713,0a1.053,1.053,0,0,1,1.041.749l.852,5.134.317,0c.266-.472,3-5.17,3-5.17a1.658,1.658,0,0,1,1.2-.73s1.84.005,2.291,0c.342-.008.328.267.228.542a2.946,2.946,0,0,1-.279.543l-7.616,12.882a1.6,1.6,0,0,1-1.2.727l-1.98,0C-2504.468-981-2504.6-981.327-2504.353-981.728Zm23.744-4.3a2.336,2.336,0,0,1-.783-1.819,3.49,3.49,0,0,1,.549-1.991,3.755,3.755,0,0,1,1.645-1.3,8.744,8.744,0,0,1,2.426-.667c.941-.138,1.727-.238,2.823-.3l.273-.175.03-.268a.876.876,0,0,0-.577-.868,4.679,4.679,0,0,0-1.734-.247,8.534,8.534,0,0,0-1.795.239,11.331,11.331,0,0,0-1.134.338c-.161.047-.507.075-.375-.539l.234-.96a1.118,1.118,0,0,1,.838-.886c.354-.076.41-.094.985-.177a14.621,14.621,0,0,1,2.311-.184,7.278,7.278,0,0,1,3.416.611,2.015,2.015,0,0,1,1.092,1.888l-.041.463-.074.494-1.4,6.025a.978.978,0,0,1-.813.721l-.03.01h-1.774l0-.007a.559.559,0,0,1-.508-.716l0-.005.007-.005.065-.309-.013-.016-.715.482-.791.434-.922.315a5.327,5.327,0,0,1-1.2.112A2.925,2.925,0,0,1-2480.609-986.03Zm4.892-4.1a7.078,7.078,0,0,0-1.258.283,1.959,1.959,0,0,0-.819.55,1.5,1.5,0,0,0-.273.936l.373.715a2.233,2.233,0,0,0,1.087.209,2.708,2.708,0,0,0,1-.216l.744-.386.311-.4c.114-.465.361-1.486.38-1.618l-.134-.232C-2474.421-990.29-2475.282-990.188-2475.717-990.134Zm-39.619,4.1a2.361,2.361,0,0,1-.778-1.815,3.543,3.543,0,0,1,.547-2,3.757,3.757,0,0,1,1.646-1.3,8.718,8.718,0,0,1,2.424-.667c.951-.139,1.735-.239,2.82-.307l.275-.17.033-.27a.878.878,0,0,0-.576-.868,4.709,4.709,0,0,0-1.739-.245,8.2,8.2,0,0,0-1.791.239,10.025,10.025,0,0,0-1.143.337c-.148.051-.5.076-.369-.539l.234-.962a1.121,1.121,0,0,1,.841-.884c.352-.076.408-.094.98-.181a15.112,15.112,0,0,1,2.313-.18,7.258,7.258,0,0,1,3.417.61,2.016,2.016,0,0,1,1.085,1.894l-.033.461-.072.491-1.394,6.034a.989.989,0,0,1-.823.716l-.025.011h-1.776l-.006-.008a.568.568,0,0,1-.511-.716v0l0-.013.072-.307-.01-.013-.721.476-.784.435-.926.319a5.537,5.537,0,0,1-1.2.112A2.921,2.921,0,0,1-2515.335-986.034Zm4.894-4.111a7,7,0,0,0-1.26.284l-.811.551a1.433,1.433,0,0,0-.28.933l.369.716a2.29,2.29,0,0,0,1.089.208,2.667,2.667,0,0,0,1-.216l.751-.388.3-.393c.117-.462.363-1.487.389-1.619l-.132-.232C-2509.142-990.3-2510-990.2-2510.441-990.145Zm17.177,3.8,2.688-11.7a.994.994,0,0,1,.912-.727l4,0a13.2,13.2,0,0,1,2.248.175,4.689,4.689,0,0,1,1.661.61,2.962,2.962,0,0,1,1.053,1.13,3.733,3.733,0,0,1,.367,1.717,4.524,4.524,0,0,1-1.944,3.8,9.1,9.1,0,0,1-5.46,1.435h-.547a.991.991,0,0,0-.919.725l-.648,2.842a.991.991,0,0,1-.919.724l-1.914,0A.566.566,0,0,1-2493.264-986.344Zm5.544-9.271-.58,2.479a.573.573,0,0,0,.585.728h.476a4.073,4.073,0,0,0,2.412-.626,2.1,2.1,0,0,0,.858-1.8,1.276,1.276,0,0,0-.556-1.139,3.1,3.1,0,0,0-1.662-.37l-.619,0h-.008A.972.972,0,0,0-2487.72-995.615Zm18.16,9.991-.029-.041a.542.542,0,0,1-.48-.68l0-.008.078-.334,2.394-10.88.086-.379.094-.148a.972.972,0,0,1,.822-.581h1.713a.56.56,0,0,1,.573.719h.006l-2.559,11.6-.092.139a.973.973,0,0,1-.824.59Zm-57.842-.037a.566.566,0,0,1-.578-.727l2.686-11.7a1,1,0,0,1,.919-.73l3.992,0a13.548,13.548,0,0,1,2.257.178,4.878,4.878,0,0,1,1.66.61,2.852,2.852,0,0,1,1.045,1.126,3.567,3.567,0,0,1,.367,1.723,4.473,4.473,0,0,1-1.952,3.791,9.052,9.052,0,0,1-5.448,1.437H-2523a.98.98,0,0,0-.916.725l-.655,2.84a.98.98,0,0,1-.918.727Zm4.968-10-.575,2.484a.569.569,0,0,0,.581.729h.468a4.022,4.022,0,0,0,2.417-.635,2.073,2.073,0,0,0,.861-1.8,1.265,1.265,0,0,0-.552-1.139,3.06,3.06,0,0,0-1.662-.372l-.626,0h0A.967.967,0,0,0-2522.434-995.661Zm60.716-2.065-.148-.49v-.99h-.214v-.264h.214v-.53h.317v.53h.639v.264h-.639v.85l0,.23.046.154.1.1.2.031.16-.023.12-.036h.017v.28l-.193.038-.183.015Zm3.593.119v-1.063l-.022-.227-.039-.179-.112-.108-.2-.037-.262.065-.265.169.005.09.006.1v1.189h-.311v-1.062l-.015-.23-.046-.178-.105-.107-.211-.037-.259.064-.26.161v1.389h-.309v-1.859h.31v.206l.293-.189.311-.068.323.076.2.221.342-.231.336-.068.457.187.146.519v1.208Z" transform="translate(2528 1000)" fill="#fff"/>
</svg>
