<svg xmlns="http://www.w3.org/2000/svg" width="43.158" height="9.413" viewBox="0 0 43.158 9.413">
  <path id="rechnung-white" d="M3.538-6.438H2.391v2.557H.952v-6.985h2.6a2.934,2.934,0,0,1,1.909.552,1.9,1.9,0,0,1,.672,1.559,2.149,2.149,0,0,1-.309,1.192,2.11,2.11,0,0,1-.938.76L6.393-3.948v.067H4.848ZM2.391-7.6H3.552a1.189,1.189,0,0,0,.84-.276.986.986,0,0,0,.3-.76,1.055,1.055,0,0,0-.281-.777A1.166,1.166,0,0,0,3.548-9.7H2.391ZM9.521-3.785a2.548,2.548,0,0,1-1.859-.7,2.49,2.49,0,0,1-.717-1.866v-.134a3.136,3.136,0,0,1,.3-1.4,2.218,2.218,0,0,1,.856-.95,2.4,2.4,0,0,1,1.264-.333,2.154,2.154,0,0,1,1.677.672,2.729,2.729,0,0,1,.612,1.9v.566H8.35a1.288,1.288,0,0,0,.405.816,1.225,1.225,0,0,0,.856.307,1.5,1.5,0,0,0,1.252-.58l.681.763a2.081,2.081,0,0,1-.844.688A2.77,2.77,0,0,1,9.521-3.785ZM9.362-8.05a.866.866,0,0,0-.669.279,1.447,1.447,0,0,0-.329.8h1.929v-.111a1.032,1.032,0,0,0-.249-.716A.894.894,0,0,0,9.362-8.05ZM14.6-4.9a.909.909,0,0,0,.624-.211.74.74,0,0,0,.249-.561h1.3a1.778,1.778,0,0,1-.288.967,1.9,1.9,0,0,1-.775.681,2.425,2.425,0,0,1-1.087.242,2.254,2.254,0,0,1-1.756-.708,2.8,2.8,0,0,1-.643-1.955v-.091a2.768,2.768,0,0,1,.638-1.914,2.227,2.227,0,0,1,1.751-.715,2.183,2.183,0,0,1,1.562.554,1.962,1.962,0,0,1,.6,1.475h-1.3a.953.953,0,0,0-.249-.658.832.832,0,0,0-.633-.253.835.835,0,0,0-.732.353,2.047,2.047,0,0,0-.247,1.146v.144a2.073,2.073,0,0,0,.245,1.153A.846.846,0,0,0,14.6-4.9Zm4.318-3.6a1.73,1.73,0,0,1,1.386-.662q1.689,0,1.713,1.962v3.325H20.632V-7.167a.964.964,0,0,0-.192-.66A.823.823,0,0,0,19.8-8.04a.944.944,0,0,0-.883.47v3.689H17.532V-11.25h1.386Zm5.421-.566.043.6a1.812,1.812,0,0,1,1.492-.7,1.506,1.506,0,0,1,1.228.485,2.261,2.261,0,0,1,.413,1.449v3.353H26.129V-7.2a.9.9,0,0,0-.192-.64.859.859,0,0,0-.638-.2.954.954,0,0,0-.878.5v3.661H23.035V-9.072Zm7.335,4.663a1.739,1.739,0,0,1-1.42.624,1.64,1.64,0,0,1-1.274-.48,2.048,2.048,0,0,1-.449-1.406v-3.4H29.92v3.357q0,.812.739.812a1,1,0,0,0,.969-.49V-9.072h1.391v5.191h-1.3Zm3.665-4.663.043.6a1.812,1.812,0,0,1,1.492-.7,1.506,1.506,0,0,1,1.228.485,2.261,2.261,0,0,1,.413,1.449v3.353H37.13V-7.2a.9.9,0,0,0-.192-.64.859.859,0,0,0-.638-.2.954.954,0,0,0-.878.5v3.661H34.036V-9.072Zm4.025,2.557a3.042,3.042,0,0,1,.569-1.924,1.842,1.842,0,0,1,1.533-.729,1.616,1.616,0,0,1,1.329.585l.058-.489h1.257v5.018A2.219,2.219,0,0,1,43.8-2.869a1.987,1.987,0,0,1-.871.768,3.061,3.061,0,0,1-1.315.264A2.846,2.846,0,0,1,40.5-2.065a1.975,1.975,0,0,1-.82-.588L40.3-3.5a1.624,1.624,0,0,0,1.257.58,1.189,1.189,0,0,0,.859-.3,1.107,1.107,0,0,0,.307-.837v-.278a1.6,1.6,0,0,1-1.262.542,1.837,1.837,0,0,1-1.514-.732,3.041,3.041,0,0,1-.578-1.941Zm1.386.1A1.894,1.894,0,0,0,41.035-5.3a.9.9,0,0,0,.777.4.963.963,0,0,0,.907-.476V-7.565a.961.961,0,0,0-.9-.476.906.906,0,0,0-.784.408A2.135,2.135,0,0,0,40.752-6.412Z" transform="translate(-0.952 11.25)" fill="#fff"/>
</svg>
