<svg xmlns="http://www.w3.org/2000/svg" width="29.411" height="35" viewBox="0 0 29.411 35">
  <path id="ups-white" d="M-2504.706-966.233a1.234,1.234,0,0,1,1.233-1.237,1.239,1.239,0,0,1,1.237,1.237,1.235,1.235,0,0,1-1.234,1.233A1.234,1.234,0,0,1-2504.706-966.233Zm.219,0a1.017,1.017,0,0,0,1.016,1.019,1.016,1.016,0,0,0,1.019-1.015v0a1.017,1.017,0,0,0-1.019-1.016A1.017,1.017,0,0,0-2504.487-966.236Zm-19.559-4.38a10.963,10.963,0,0,1-3.955-8.807v-17.312a31.154,31.154,0,0,1,14.706-3.263,31.149,31.149,0,0,1,14.705,3.263v17.312a10.966,10.966,0,0,1-3.955,8.808c-2.366,1.94-9.887,5.24-10.75,5.615C-2514.158-965.376-2521.678-968.675-2524.046-970.617Zm-2.6-18.71v9.9a9.64,9.64,0,0,0,3.459,7.764c2,1.629,8.158,4.417,9.9,5.183,1.715-.754,7.856-3.505,9.892-5.183a9.6,9.6,0,0,0,3.461-7.764v-16.949c-1.815-.168-3.7-.28-5.624-.28C-2512.691-996.653-2520.332-995.12-2526.648-989.327Zm23.458,23.842s-.388-.6-.408-.627h-.038v.627h-.272v-1.5l.425,0a.469.469,0,0,1,.071,0,.438.438,0,0,1,.429.435s0,.008,0,.011a.4.4,0,0,1-.333.4c.042.057.454.66.454.66Zm-.411-.838c.291,0,.351-.094.351-.235,0-.1-.032-.211-.263-.211h-.122v.446Zm-12.759-4.85v-16.673a6.182,6.182,0,0,1,3.449-.91c3.053,0,4.732,2.318,4.732,6.046s-1.629,6.3-4.47,6.3a4.079,4.079,0,0,1-1.151-.146v5.387Zm2.559-7.478a2.425,2.425,0,0,0,.831.154c1.471,0,2.175-1.351,2.175-4.148,0-2.867-.615-4.052-2.1-4.052a2.23,2.23,0,0,0-.907.185Zm-7.729,2.281c-2.532,0-3.815-1.374-3.815-4.085h0V-988.5h2.557v8.155c0,.726.176,1.8,1.348,1.8a2.144,2.144,0,0,0,1.208-.315V-988.5h2.554v11.1a6.8,6.8,0,0,1-3.6,1.032C-2521.362-976.366-2521.446-976.367-2521.53-976.37Zm14.04-.794v-2.356a4.077,4.077,0,0,0,2.445,1.041,1.359,1.359,0,0,0,1.534-1.384q0-.021,0-.041c-.019-.8-.471-1.239-1.6-1.9-2.11-1.237-2.49-2.255-2.493-3.616h0a3.4,3.4,0,0,1,3.433-3.334,4.381,4.381,0,0,1,2.807.831v2.226a3.42,3.42,0,0,0-2.29-1.051c-.726-.005-1.481.313-1.5,1.223q0,.022,0,.043c0,.9.744,1.264,1.681,1.815,2.037,1.2,2.508,2.279,2.5,3.67,0,.068,0,.138,0,.207a3.458,3.458,0,0,1-3.7,3.423A5.6,5.6,0,0,1-2507.49-977.164Z" transform="translate(2528 1000)" fill="#fff"/>
</svg>
