<svg xmlns="http://www.w3.org/2000/svg" width="40.985" height="7.465" viewBox="0 0 40.985 7.465">
  <path id="vorkasse-white" d="M3.222-5.613l1.583-5.253h1.6L3.976-3.881h-1.5L.051-10.866h1.6Zm3.315-.912a3.079,3.079,0,0,1,.3-1.377,2.177,2.177,0,0,1,.856-.936,2.5,2.5,0,0,1,1.3-.331,2.364,2.364,0,0,1,1.715.643,2.58,2.58,0,0,1,.741,1.746l.01.355a2.713,2.713,0,0,1-.667,1.917A2.318,2.318,0,0,1,9-3.785,2.33,2.33,0,0,1,7.207-4.5a2.761,2.761,0,0,1-.669-1.957Zm1.386.1A1.94,1.94,0,0,0,8.2-5.294.918.918,0,0,0,9-4.9a.92.92,0,0,0,.787-.387,2.123,2.123,0,0,0,.283-1.237,1.921,1.921,0,0,0-.283-1.124.92.92,0,0,0-.8-.4.905.905,0,0,0-.787.4A2.159,2.159,0,0,0,7.924-6.426Zm7.3-1.346a3.767,3.767,0,0,0-.5-.038,1.016,1.016,0,0,0-1.031.533v3.4H12.309V-9.072h1.31l.038.619a1.285,1.285,0,0,1,1.156-.715,1.453,1.453,0,0,1,.432.062Zm2.552,1.809-.5.5v1.583H15.893V-11.25h1.386v4.083l.269-.345,1.329-1.559h1.665L18.666-6.908,20.7-3.881H19.112Zm6.371,2.082a1.54,1.54,0,0,1-.139-.465,1.678,1.678,0,0,1-1.31.561,1.843,1.843,0,0,1-1.264-.441,1.42,1.42,0,0,1-.5-1.113,1.467,1.467,0,0,1,.612-1.267,3.018,3.018,0,0,1,1.768-.446h.638v-.3a.855.855,0,0,0-.185-.576.727.727,0,0,0-.583-.216.826.826,0,0,0-.549.168.57.57,0,0,0-.2.461H21.05a1.393,1.393,0,0,1,.278-.835,1.839,1.839,0,0,1,.787-.6,2.867,2.867,0,0,1,1.142-.218,2.265,2.265,0,0,1,1.523.482,1.687,1.687,0,0,1,.564,1.355v2.25a2.482,2.482,0,0,0,.206,1.118v.082ZM23-4.845a1.194,1.194,0,0,0,.566-.137.9.9,0,0,0,.384-.367v-.892h-.518q-1.041,0-1.108.72l0,.082a.555.555,0,0,0,.182.427A.708.708,0,0,0,23-4.845Zm6.218-.47a.447.447,0,0,0-.252-.4,2.861,2.861,0,0,0-.808-.261q-1.852-.389-1.852-1.574A1.426,1.426,0,0,1,26.881-8.7a2.313,2.313,0,0,1,1.5-.463,2.489,2.489,0,0,1,1.581.465,1.467,1.467,0,0,1,.592,1.209H29.167a.671.671,0,0,0-.192-.492.812.812,0,0,0-.6-.194.83.83,0,0,0-.542.158.5.5,0,0,0-.192.4.427.427,0,0,0,.218.372A2.246,2.246,0,0,0,28.6-7a6.015,6.015,0,0,1,.873.233,1.435,1.435,0,0,1,1.1,1.4,1.354,1.354,0,0,1-.609,1.149,2.628,2.628,0,0,1-1.574.439,2.745,2.745,0,0,1-1.159-.233,1.944,1.944,0,0,1-.794-.638,1.483,1.483,0,0,1-.288-.876h1.315a.724.724,0,0,0,.273.566,1.085,1.085,0,0,0,.681.2,1,1,0,0,0,.6-.151A.47.47,0,0,0,29.22-5.315Zm5.052,0a.447.447,0,0,0-.252-.4,2.861,2.861,0,0,0-.808-.261Q31.36-6.366,31.36-7.551A1.426,1.426,0,0,1,31.933-8.7a2.313,2.313,0,0,1,1.5-.463,2.489,2.489,0,0,1,1.581.465,1.467,1.467,0,0,1,.592,1.209H34.219a.671.671,0,0,0-.192-.492.812.812,0,0,0-.6-.194.83.83,0,0,0-.542.158.5.5,0,0,0-.192.4.427.427,0,0,0,.218.372A2.246,2.246,0,0,0,33.648-7a6.015,6.015,0,0,1,.873.233,1.435,1.435,0,0,1,1.1,1.4,1.354,1.354,0,0,1-.609,1.149,2.628,2.628,0,0,1-1.574.439,2.745,2.745,0,0,1-1.159-.233,1.944,1.944,0,0,1-.794-.638,1.483,1.483,0,0,1-.288-.876h1.315a.724.724,0,0,0,.273.566,1.085,1.085,0,0,0,.681.2,1,1,0,0,0,.6-.151A.47.47,0,0,0,34.272-5.315Zm4.63,1.53a2.548,2.548,0,0,1-1.859-.7,2.49,2.49,0,0,1-.717-1.866v-.134a3.136,3.136,0,0,1,.3-1.4,2.218,2.218,0,0,1,.856-.95,2.4,2.4,0,0,1,1.264-.333,2.154,2.154,0,0,1,1.677.672,2.729,2.729,0,0,1,.612,1.9v.566H37.731a1.288,1.288,0,0,0,.405.816,1.225,1.225,0,0,0,.856.307,1.5,1.5,0,0,0,1.252-.58l.681.763a2.081,2.081,0,0,1-.844.688A2.77,2.77,0,0,1,38.9-3.785ZM38.743-8.05a.866.866,0,0,0-.669.279,1.447,1.447,0,0,0-.329.8h1.929v-.111a1.032,1.032,0,0,0-.249-.716A.894.894,0,0,0,38.743-8.05Z" transform="translate(-0.051 11.25)" fill="#fff"/>
</svg>
